<mxfile host="app.diagrams.net" agent="Mozilla/5.0 (Windows NT 10.0; Win64; x64) AppleWebKit/537.36 (KHTML, like Gecko) Chrome/132.0.0.0 Safari/537.36 Edg/132.0.0.0" version="26.0.8">
  <diagram name="第 1 页" id="w6-EaDdpGE8niemOMU4S">
    <mxGraphModel dx="5126" dy="2340" grid="1" gridSize="10" guides="1" tooltips="1" connect="1" arrows="1" fold="1" page="1" pageScale="1" pageWidth="827" pageHeight="1169" math="0" shadow="0">
      <root>
        <mxCell id="0" />
        <mxCell id="1" parent="0" />
        <mxCell id="hNd8LivyKxEMw5aS4ujh-4" value="" style="edgeStyle=orthogonalEdgeStyle;rounded=0;orthogonalLoop=1;jettySize=auto;html=1;" edge="1" parent="1" source="hNd8LivyKxEMw5aS4ujh-1" target="hNd8LivyKxEMw5aS4ujh-3">
          <mxGeometry relative="1" as="geometry" />
        </mxCell>
        <mxCell id="hNd8LivyKxEMw5aS4ujh-1" value="平台退票单" style="rounded=1;whiteSpace=wrap;html=1;" vertex="1" parent="1">
          <mxGeometry x="354" y="30" width="120" height="60" as="geometry" />
        </mxCell>
        <mxCell id="hNd8LivyKxEMw5aS4ujh-6" value="" style="edgeStyle=orthogonalEdgeStyle;rounded=0;orthogonalLoop=1;jettySize=auto;html=1;" edge="1" parent="1" source="hNd8LivyKxEMw5aS4ujh-3" target="hNd8LivyKxEMw5aS4ujh-5">
          <mxGeometry relative="1" as="geometry" />
        </mxCell>
        <mxCell id="hNd8LivyKxEMw5aS4ujh-9" value="有" style="edgeLabel;html=1;align=center;verticalAlign=middle;resizable=0;points=[];" vertex="1" connectable="0" parent="hNd8LivyKxEMw5aS4ujh-6">
          <mxGeometry x="0.3925" relative="1" as="geometry">
            <mxPoint as="offset" />
          </mxGeometry>
        </mxCell>
        <mxCell id="hNd8LivyKxEMw5aS4ujh-8" value="" style="edgeStyle=orthogonalEdgeStyle;rounded=0;orthogonalLoop=1;jettySize=auto;html=1;" edge="1" parent="1" source="hNd8LivyKxEMw5aS4ujh-3" target="hNd8LivyKxEMw5aS4ujh-7">
          <mxGeometry relative="1" as="geometry" />
        </mxCell>
        <mxCell id="hNd8LivyKxEMw5aS4ujh-10" value="无" style="edgeLabel;html=1;align=center;verticalAlign=middle;resizable=0;points=[];" vertex="1" connectable="0" parent="hNd8LivyKxEMw5aS4ujh-8">
          <mxGeometry x="0.487" y="2" relative="1" as="geometry">
            <mxPoint as="offset" />
          </mxGeometry>
        </mxCell>
        <mxCell id="hNd8LivyKxEMw5aS4ujh-3" value="是否有退票费" style="rhombus;whiteSpace=wrap;html=1;rounded=1;" vertex="1" parent="1">
          <mxGeometry x="374" y="160" width="80" height="80" as="geometry" />
        </mxCell>
        <mxCell id="hNd8LivyKxEMw5aS4ujh-14" value="" style="edgeStyle=orthogonalEdgeStyle;rounded=0;orthogonalLoop=1;jettySize=auto;html=1;" edge="1" parent="1" source="hNd8LivyKxEMw5aS4ujh-5" target="hNd8LivyKxEMw5aS4ujh-13">
          <mxGeometry relative="1" as="geometry" />
        </mxCell>
        <mxCell id="hNd8LivyKxEMw5aS4ujh-5" value="退票费比对" style="whiteSpace=wrap;html=1;rounded=1;" vertex="1" parent="1">
          <mxGeometry x="210" y="310" width="120" height="60" as="geometry" />
        </mxCell>
        <mxCell id="hNd8LivyKxEMw5aS4ujh-7" value="按配置返回可退金额" style="whiteSpace=wrap;html=1;rounded=1;" vertex="1" parent="1">
          <mxGeometry x="514" y="310" width="120" height="60" as="geometry" />
        </mxCell>
        <mxCell id="hNd8LivyKxEMw5aS4ujh-16" value="" style="edgeStyle=orthogonalEdgeStyle;rounded=0;orthogonalLoop=1;jettySize=auto;html=1;" edge="1" parent="1" source="hNd8LivyKxEMw5aS4ujh-13" target="hNd8LivyKxEMw5aS4ujh-15">
          <mxGeometry relative="1" as="geometry" />
        </mxCell>
        <mxCell id="hNd8LivyKxEMw5aS4ujh-17" value="小于等于" style="edgeLabel;html=1;align=center;verticalAlign=middle;resizable=0;points=[];" vertex="1" connectable="0" parent="hNd8LivyKxEMw5aS4ujh-16">
          <mxGeometry x="0.1308" y="-3" relative="1" as="geometry">
            <mxPoint as="offset" />
          </mxGeometry>
        </mxCell>
        <mxCell id="hNd8LivyKxEMw5aS4ujh-19" value="" style="edgeStyle=orthogonalEdgeStyle;rounded=0;orthogonalLoop=1;jettySize=auto;html=1;" edge="1" parent="1" source="hNd8LivyKxEMw5aS4ujh-13" target="hNd8LivyKxEMw5aS4ujh-18">
          <mxGeometry relative="1" as="geometry" />
        </mxCell>
        <mxCell id="hNd8LivyKxEMw5aS4ujh-13" value="按平台退改规则判断，是否符合条件" style="rhombus;whiteSpace=wrap;html=1;rounded=1;" vertex="1" parent="1">
          <mxGeometry x="210" y="450" width="120" height="120" as="geometry" />
        </mxCell>
        <mxCell id="hNd8LivyKxEMw5aS4ujh-15" value="确认退票" style="whiteSpace=wrap;html=1;rounded=1;" vertex="1" parent="1">
          <mxGeometry x="70" y="630" width="120" height="60" as="geometry" />
        </mxCell>
        <mxCell id="hNd8LivyKxEMw5aS4ujh-18" value="拒绝" style="whiteSpace=wrap;html=1;rounded=1;" vertex="1" parent="1">
          <mxGeometry x="340" y="630" width="120" height="60" as="geometry" />
        </mxCell>
        <mxCell id="hNd8LivyKxEMw5aS4ujh-24" value="" style="edgeStyle=orthogonalEdgeStyle;rounded=0;orthogonalLoop=1;jettySize=auto;html=1;" edge="1" parent="1" source="hNd8LivyKxEMw5aS4ujh-22" target="hNd8LivyKxEMw5aS4ujh-23">
          <mxGeometry relative="1" as="geometry" />
        </mxCell>
        <mxCell id="hNd8LivyKxEMw5aS4ujh-22" value="退票单导入" style="rounded=1;whiteSpace=wrap;html=1;fillColor=#d5e8d4;strokeColor=#82b366;" vertex="1" parent="1">
          <mxGeometry x="1181" y="10" width="120" height="60" as="geometry" />
        </mxCell>
        <mxCell id="hNd8LivyKxEMw5aS4ujh-26" value="" style="edgeStyle=orthogonalEdgeStyle;rounded=0;orthogonalLoop=1;jettySize=auto;html=1;" edge="1" parent="1" source="hNd8LivyKxEMw5aS4ujh-23" target="hNd8LivyKxEMw5aS4ujh-25">
          <mxGeometry relative="1" as="geometry" />
        </mxCell>
        <mxCell id="hNd8LivyKxEMw5aS4ujh-23" value="取条件管理配置" style="rounded=1;whiteSpace=wrap;html=1;" vertex="1" parent="1">
          <mxGeometry x="1181" y="150" width="120" height="60" as="geometry" />
        </mxCell>
        <mxCell id="hNd8LivyKxEMw5aS4ujh-28" value="" style="edgeStyle=orthogonalEdgeStyle;rounded=0;orthogonalLoop=1;jettySize=auto;html=1;" edge="1" parent="1" source="hNd8LivyKxEMw5aS4ujh-25" target="hNd8LivyKxEMw5aS4ujh-27">
          <mxGeometry relative="1" as="geometry" />
        </mxCell>
        <mxCell id="hNd8LivyKxEMw5aS4ujh-25" value="根据配置判断&lt;div&gt;平台/产品/渠道/航司/航线&lt;/div&gt;" style="rounded=1;whiteSpace=wrap;html=1;" vertex="1" parent="1">
          <mxGeometry x="1181" y="280" width="119" height="60" as="geometry" />
        </mxCell>
        <mxCell id="hNd8LivyKxEMw5aS4ujh-30" value="" style="edgeStyle=orthogonalEdgeStyle;rounded=0;orthogonalLoop=1;jettySize=auto;html=1;" edge="1" parent="1" source="hNd8LivyKxEMw5aS4ujh-27" target="hNd8LivyKxEMw5aS4ujh-29">
          <mxGeometry relative="1" as="geometry" />
        </mxCell>
        <mxCell id="hNd8LivyKxEMw5aS4ujh-27" value="判断条件类型" style="rounded=1;whiteSpace=wrap;html=1;" vertex="1" parent="1">
          <mxGeometry x="1166.5" y="430" width="149" height="60" as="geometry" />
        </mxCell>
        <mxCell id="hNd8LivyKxEMw5aS4ujh-32" value="" style="edgeStyle=orthogonalEdgeStyle;rounded=0;orthogonalLoop=1;jettySize=auto;html=1;" edge="1" parent="1" source="hNd8LivyKxEMw5aS4ujh-29" target="hNd8LivyKxEMw5aS4ujh-31">
          <mxGeometry relative="1" as="geometry" />
        </mxCell>
        <mxCell id="hNd8LivyKxEMw5aS4ujh-33" value="是" style="edgeLabel;html=1;align=center;verticalAlign=middle;resizable=0;points=[];" vertex="1" connectable="0" parent="hNd8LivyKxEMw5aS4ujh-32">
          <mxGeometry x="0.3229" y="-2" relative="1" as="geometry">
            <mxPoint as="offset" />
          </mxGeometry>
        </mxCell>
        <mxCell id="hNd8LivyKxEMw5aS4ujh-37" value="" style="edgeStyle=orthogonalEdgeStyle;rounded=0;orthogonalLoop=1;jettySize=auto;html=1;" edge="1" parent="1" source="hNd8LivyKxEMw5aS4ujh-29" target="hNd8LivyKxEMw5aS4ujh-36">
          <mxGeometry relative="1" as="geometry" />
        </mxCell>
        <mxCell id="hNd8LivyKxEMw5aS4ujh-40" value="否" style="edgeLabel;html=1;align=center;verticalAlign=middle;resizable=0;points=[];" vertex="1" connectable="0" parent="hNd8LivyKxEMw5aS4ujh-37">
          <mxGeometry x="0.4164" y="-1" relative="1" as="geometry">
            <mxPoint y="1" as="offset" />
          </mxGeometry>
        </mxCell>
        <mxCell id="hNd8LivyKxEMw5aS4ujh-29" value="是否特殊情况" style="rhombus;whiteSpace=wrap;html=1;rounded=1;" vertex="1" parent="1">
          <mxGeometry x="1201" y="560" width="80" height="80" as="geometry" />
        </mxCell>
        <mxCell id="hNd8LivyKxEMw5aS4ujh-42" value="" style="edgeStyle=orthogonalEdgeStyle;rounded=0;orthogonalLoop=1;jettySize=auto;html=1;" edge="1" parent="1" source="hNd8LivyKxEMw5aS4ujh-31" target="hNd8LivyKxEMw5aS4ujh-41">
          <mxGeometry relative="1" as="geometry" />
        </mxCell>
        <mxCell id="hNd8LivyKxEMw5aS4ujh-31" value="判断出票日期/航班日期/退票申请日期" style="whiteSpace=wrap;html=1;rounded=1;" vertex="1" parent="1">
          <mxGeometry x="1046.5" y="690" width="120" height="60" as="geometry" />
        </mxCell>
        <mxCell id="hNd8LivyKxEMw5aS4ujh-55" style="edgeStyle=orthogonalEdgeStyle;rounded=0;orthogonalLoop=1;jettySize=auto;html=1;entryX=0.75;entryY=0;entryDx=0;entryDy=0;exitX=0.5;exitY=1;exitDx=0;exitDy=0;" edge="1" parent="1" source="hNd8LivyKxEMw5aS4ujh-36" target="hNd8LivyKxEMw5aS4ujh-280">
          <mxGeometry relative="1" as="geometry">
            <mxPoint x="1400" y="860" as="sourcePoint" />
            <mxPoint x="1266.5" y="1090" as="targetPoint" />
          </mxGeometry>
        </mxCell>
        <mxCell id="hNd8LivyKxEMw5aS4ujh-36" value="自愿/非自愿" style="whiteSpace=wrap;html=1;rounded=1;" vertex="1" parent="1">
          <mxGeometry x="1315.5" y="690" width="120" height="60" as="geometry" />
        </mxCell>
        <mxCell id="hNd8LivyKxEMw5aS4ujh-44" value="" style="edgeStyle=orthogonalEdgeStyle;rounded=0;orthogonalLoop=1;jettySize=auto;html=1;entryX=0.25;entryY=0;entryDx=0;entryDy=0;" edge="1" parent="1" source="hNd8LivyKxEMw5aS4ujh-41" target="hNd8LivyKxEMw5aS4ujh-280">
          <mxGeometry relative="1" as="geometry">
            <mxPoint x="1198.2352941176473" y="1060" as="targetPoint" />
          </mxGeometry>
        </mxCell>
        <mxCell id="hNd8LivyKxEMw5aS4ujh-49" value="是" style="edgeLabel;html=1;align=center;verticalAlign=middle;resizable=0;points=[];" vertex="1" connectable="0" parent="hNd8LivyKxEMw5aS4ujh-44">
          <mxGeometry x="-0.1007" y="1" relative="1" as="geometry">
            <mxPoint as="offset" />
          </mxGeometry>
        </mxCell>
        <mxCell id="hNd8LivyKxEMw5aS4ujh-50" style="edgeStyle=orthogonalEdgeStyle;rounded=0;orthogonalLoop=1;jettySize=auto;html=1;entryX=0;entryY=0.5;entryDx=0;entryDy=0;" edge="1" parent="1" source="hNd8LivyKxEMw5aS4ujh-41" target="hNd8LivyKxEMw5aS4ujh-36">
          <mxGeometry relative="1" as="geometry">
            <mxPoint x="1339.9999999999995" y="860" as="targetPoint" />
          </mxGeometry>
        </mxCell>
        <mxCell id="hNd8LivyKxEMw5aS4ujh-51" value="否" style="edgeLabel;html=1;align=center;verticalAlign=middle;resizable=0;points=[];" vertex="1" connectable="0" parent="hNd8LivyKxEMw5aS4ujh-50">
          <mxGeometry x="-0.082" y="1" relative="1" as="geometry">
            <mxPoint as="offset" />
          </mxGeometry>
        </mxCell>
        <mxCell id="hNd8LivyKxEMw5aS4ujh-41" value="是否符合条件" style="rhombus;whiteSpace=wrap;html=1;rounded=1;" vertex="1" parent="1">
          <mxGeometry x="1066.5" y="820" width="80" height="80" as="geometry" />
        </mxCell>
        <mxCell id="hNd8LivyKxEMw5aS4ujh-56" value="规则管理" style="rounded=1;whiteSpace=wrap;html=1;" vertex="1" parent="1">
          <mxGeometry x="1880" y="80" width="120" height="60" as="geometry" />
        </mxCell>
        <mxCell id="hNd8LivyKxEMw5aS4ujh-83" value="" style="shape=table;startSize=0;container=1;collapsible=0;childLayout=tableLayout;fontSize=16;fontStyle=1" vertex="1" parent="1">
          <mxGeometry x="1730" y="174" width="460" height="40.00000000000023" as="geometry" />
        </mxCell>
        <mxCell id="hNd8LivyKxEMw5aS4ujh-92" value="" style="shape=tableRow;horizontal=0;startSize=0;swimlaneHead=0;swimlaneBody=0;strokeColor=inherit;top=0;left=0;bottom=0;right=0;collapsible=0;dropTarget=0;fillColor=none;points=[[0,0.5],[1,0.5]];portConstraint=eastwest;fontSize=16;" vertex="1" parent="hNd8LivyKxEMw5aS4ujh-83">
          <mxGeometry width="460" height="40" as="geometry" />
        </mxCell>
        <mxCell id="hNd8LivyKxEMw5aS4ujh-93" value="名称" style="shape=partialRectangle;html=1;whiteSpace=wrap;connectable=0;strokeColor=#666666;overflow=hidden;fillColor=#f5f5f5;top=0;left=0;bottom=0;right=0;pointerEvents=1;fontSize=16;fontColor=#333333;fontStyle=1" vertex="1" parent="hNd8LivyKxEMw5aS4ujh-92">
          <mxGeometry width="110" height="40" as="geometry">
            <mxRectangle width="110" height="40" as="alternateBounds" />
          </mxGeometry>
        </mxCell>
        <mxCell id="hNd8LivyKxEMw5aS4ujh-94" value="字段值" style="shape=partialRectangle;html=1;whiteSpace=wrap;connectable=0;strokeColor=#666666;overflow=hidden;fillColor=#f5f5f5;top=0;left=0;bottom=0;right=0;pointerEvents=1;fontSize=16;fontColor=#333333;fontStyle=1" vertex="1" parent="hNd8LivyKxEMw5aS4ujh-92">
          <mxGeometry x="110" width="210" height="40" as="geometry">
            <mxRectangle width="210" height="40" as="alternateBounds" />
          </mxGeometry>
        </mxCell>
        <mxCell id="hNd8LivyKxEMw5aS4ujh-95" value="样式" style="shape=partialRectangle;html=1;whiteSpace=wrap;connectable=0;strokeColor=#666666;overflow=hidden;fillColor=#f5f5f5;top=0;left=0;bottom=0;right=0;pointerEvents=1;fontSize=16;fontColor=#333333;fontStyle=1" vertex="1" parent="hNd8LivyKxEMw5aS4ujh-92">
          <mxGeometry x="320" width="140" height="40" as="geometry">
            <mxRectangle width="140" height="40" as="alternateBounds" />
          </mxGeometry>
        </mxCell>
        <mxCell id="hNd8LivyKxEMw5aS4ujh-109" value="" style="shape=table;startSize=0;container=1;collapsible=0;childLayout=tableLayout;fontSize=16;" vertex="1" parent="1">
          <mxGeometry x="1730" y="214" width="460" height="170.00000000000023" as="geometry" />
        </mxCell>
        <mxCell id="hNd8LivyKxEMw5aS4ujh-110" value="" style="shape=tableRow;horizontal=0;startSize=0;swimlaneHead=0;swimlaneBody=0;strokeColor=inherit;top=0;left=0;bottom=0;right=0;collapsible=0;dropTarget=0;fillColor=none;points=[[0,0.5],[1,0.5]];portConstraint=eastwest;fontSize=16;" vertex="1" parent="hNd8LivyKxEMw5aS4ujh-109">
          <mxGeometry width="460" height="50" as="geometry" />
        </mxCell>
        <mxCell id="hNd8LivyKxEMw5aS4ujh-111" value="平台" style="shape=partialRectangle;html=1;whiteSpace=wrap;connectable=0;strokeColor=inherit;overflow=hidden;fillColor=none;top=0;left=0;bottom=0;right=0;pointerEvents=1;fontSize=16;" vertex="1" parent="hNd8LivyKxEMw5aS4ujh-110">
          <mxGeometry width="110" height="50" as="geometry">
            <mxRectangle width="110" height="50" as="alternateBounds" />
          </mxGeometry>
        </mxCell>
        <mxCell id="hNd8LivyKxEMw5aS4ujh-112" value="&lt;span style=&quot;text-align: left;&quot;&gt;携程/去哪/不区分&lt;/span&gt;" style="shape=partialRectangle;html=1;whiteSpace=wrap;connectable=0;strokeColor=inherit;overflow=hidden;fillColor=none;top=0;left=0;bottom=0;right=0;pointerEvents=1;fontSize=16;" vertex="1" parent="hNd8LivyKxEMw5aS4ujh-110">
          <mxGeometry x="110" width="210" height="50" as="geometry">
            <mxRectangle width="210" height="50" as="alternateBounds" />
          </mxGeometry>
        </mxCell>
        <mxCell id="hNd8LivyKxEMw5aS4ujh-113" value="下拉级联" style="shape=partialRectangle;html=1;whiteSpace=wrap;connectable=0;strokeColor=inherit;overflow=hidden;fillColor=none;top=0;left=0;bottom=0;right=0;pointerEvents=1;fontSize=16;" vertex="1" parent="hNd8LivyKxEMw5aS4ujh-110">
          <mxGeometry x="320" width="140" height="50" as="geometry">
            <mxRectangle width="140" height="50" as="alternateBounds" />
          </mxGeometry>
        </mxCell>
        <mxCell id="hNd8LivyKxEMw5aS4ujh-114" value="" style="shape=tableRow;horizontal=0;startSize=0;swimlaneHead=0;swimlaneBody=0;strokeColor=inherit;top=0;left=0;bottom=0;right=0;collapsible=0;dropTarget=0;fillColor=none;points=[[0,0.5],[1,0.5]];portConstraint=eastwest;fontSize=16;" vertex="1" parent="hNd8LivyKxEMw5aS4ujh-109">
          <mxGeometry y="50" width="460" height="40" as="geometry" />
        </mxCell>
        <mxCell id="hNd8LivyKxEMw5aS4ujh-115" value="产品" style="shape=partialRectangle;html=1;whiteSpace=wrap;connectable=0;strokeColor=inherit;overflow=hidden;fillColor=none;top=0;left=0;bottom=0;right=0;pointerEvents=1;fontSize=16;" vertex="1" parent="hNd8LivyKxEMw5aS4ujh-114">
          <mxGeometry width="110" height="40" as="geometry">
            <mxRectangle width="110" height="40" as="alternateBounds" />
          </mxGeometry>
        </mxCell>
        <mxCell id="hNd8LivyKxEMw5aS4ujh-116" value="Base/Bag" style="shape=partialRectangle;html=1;whiteSpace=wrap;connectable=0;strokeColor=inherit;overflow=hidden;fillColor=none;top=0;left=0;bottom=0;right=0;pointerEvents=1;fontSize=16;" vertex="1" parent="hNd8LivyKxEMw5aS4ujh-114">
          <mxGeometry x="110" width="210" height="40" as="geometry">
            <mxRectangle width="210" height="40" as="alternateBounds" />
          </mxGeometry>
        </mxCell>
        <mxCell id="hNd8LivyKxEMw5aS4ujh-117" value="下拉" style="shape=partialRectangle;html=1;whiteSpace=wrap;connectable=0;strokeColor=inherit;overflow=hidden;fillColor=none;top=0;left=0;bottom=0;right=0;pointerEvents=1;fontSize=16;" vertex="1" parent="hNd8LivyKxEMw5aS4ujh-114">
          <mxGeometry x="320" width="140" height="40" as="geometry">
            <mxRectangle width="140" height="40" as="alternateBounds" />
          </mxGeometry>
        </mxCell>
        <mxCell id="hNd8LivyKxEMw5aS4ujh-118" value="" style="shape=tableRow;horizontal=0;startSize=0;swimlaneHead=0;swimlaneBody=0;strokeColor=inherit;top=0;left=0;bottom=0;right=0;collapsible=0;dropTarget=0;fillColor=none;points=[[0,0.5],[1,0.5]];portConstraint=eastwest;fontSize=16;" vertex="1" parent="hNd8LivyKxEMw5aS4ujh-109">
          <mxGeometry y="90" width="460" height="40" as="geometry" />
        </mxCell>
        <mxCell id="hNd8LivyKxEMw5aS4ujh-119" value="渠道（携程）" style="shape=partialRectangle;html=1;whiteSpace=wrap;connectable=0;strokeColor=inherit;overflow=hidden;fillColor=none;top=0;left=0;bottom=0;right=0;pointerEvents=1;fontSize=16;" vertex="1" parent="hNd8LivyKxEMw5aS4ujh-118">
          <mxGeometry width="110" height="40" as="geometry">
            <mxRectangle width="110" height="40" as="alternateBounds" />
          </mxGeometry>
        </mxCell>
        <mxCell id="hNd8LivyKxEMw5aS4ujh-120" value="KR/HK/CN/AE" style="shape=partialRectangle;html=1;whiteSpace=wrap;connectable=0;strokeColor=inherit;overflow=hidden;fillColor=none;top=0;left=0;bottom=0;right=0;pointerEvents=1;fontSize=16;" vertex="1" parent="hNd8LivyKxEMw5aS4ujh-118">
          <mxGeometry x="110" width="210" height="40" as="geometry">
            <mxRectangle width="210" height="40" as="alternateBounds" />
          </mxGeometry>
        </mxCell>
        <mxCell id="hNd8LivyKxEMw5aS4ujh-121" value="下拉" style="shape=partialRectangle;html=1;whiteSpace=wrap;connectable=0;strokeColor=inherit;overflow=hidden;fillColor=none;top=0;left=0;bottom=0;right=0;pointerEvents=1;fontSize=16;" vertex="1" parent="hNd8LivyKxEMw5aS4ujh-118">
          <mxGeometry x="320" width="140" height="40" as="geometry">
            <mxRectangle width="140" height="40" as="alternateBounds" />
          </mxGeometry>
        </mxCell>
        <mxCell id="hNd8LivyKxEMw5aS4ujh-184" value="" style="shape=tableRow;horizontal=0;startSize=0;swimlaneHead=0;swimlaneBody=0;strokeColor=inherit;top=0;left=0;bottom=0;right=0;collapsible=0;dropTarget=0;fillColor=none;points=[[0,0.5],[1,0.5]];portConstraint=eastwest;fontSize=16;" vertex="1" parent="hNd8LivyKxEMw5aS4ujh-109">
          <mxGeometry y="130" width="460" height="40" as="geometry" />
        </mxCell>
        <mxCell id="hNd8LivyKxEMw5aS4ujh-185" value="航司" style="shape=partialRectangle;html=1;whiteSpace=wrap;connectable=0;strokeColor=inherit;overflow=hidden;fillColor=none;top=0;left=0;bottom=0;right=0;pointerEvents=1;fontSize=16;" vertex="1" parent="hNd8LivyKxEMw5aS4ujh-184">
          <mxGeometry width="110" height="40" as="geometry">
            <mxRectangle width="110" height="40" as="alternateBounds" />
          </mxGeometry>
        </mxCell>
        <mxCell id="hNd8LivyKxEMw5aS4ujh-186" value="VJ/VZ/不区分" style="shape=partialRectangle;html=1;whiteSpace=wrap;connectable=0;strokeColor=inherit;overflow=hidden;fillColor=none;top=0;left=0;bottom=0;right=0;pointerEvents=1;fontSize=16;" vertex="1" parent="hNd8LivyKxEMw5aS4ujh-184">
          <mxGeometry x="110" width="210" height="40" as="geometry">
            <mxRectangle width="210" height="40" as="alternateBounds" />
          </mxGeometry>
        </mxCell>
        <mxCell id="hNd8LivyKxEMw5aS4ujh-187" value="下拉" style="shape=partialRectangle;html=1;whiteSpace=wrap;connectable=0;strokeColor=inherit;overflow=hidden;fillColor=none;top=0;left=0;bottom=0;right=0;pointerEvents=1;fontSize=16;" vertex="1" parent="hNd8LivyKxEMw5aS4ujh-184">
          <mxGeometry x="320" width="140" height="40" as="geometry">
            <mxRectangle width="140" height="40" as="alternateBounds" />
          </mxGeometry>
        </mxCell>
        <mxCell id="hNd8LivyKxEMw5aS4ujh-122" value="" style="shape=table;startSize=0;container=1;collapsible=0;childLayout=tableLayout;fontSize=16;" vertex="1" parent="1">
          <mxGeometry x="1730" y="384" width="460" height="376.00000000000045" as="geometry" />
        </mxCell>
        <mxCell id="hNd8LivyKxEMw5aS4ujh-123" value="" style="shape=tableRow;horizontal=0;startSize=0;swimlaneHead=0;swimlaneBody=0;strokeColor=inherit;top=0;left=0;bottom=0;right=0;collapsible=0;dropTarget=0;fillColor=none;points=[[0,0.5],[1,0.5]];portConstraint=eastwest;fontSize=16;" vertex="1" parent="hNd8LivyKxEMw5aS4ujh-122">
          <mxGeometry width="460" height="40" as="geometry" />
        </mxCell>
        <mxCell id="hNd8LivyKxEMw5aS4ujh-124" value="名称" style="shape=partialRectangle;html=1;whiteSpace=wrap;connectable=0;strokeColor=inherit;overflow=hidden;fillColor=none;top=0;left=0;bottom=0;right=0;pointerEvents=1;fontSize=16;" vertex="1" parent="hNd8LivyKxEMw5aS4ujh-123">
          <mxGeometry width="110" height="40" as="geometry">
            <mxRectangle width="110" height="40" as="alternateBounds" />
          </mxGeometry>
        </mxCell>
        <mxCell id="hNd8LivyKxEMw5aS4ujh-125" value="7C特殊事件退票" style="shape=partialRectangle;html=1;whiteSpace=wrap;connectable=0;strokeColor=inherit;overflow=hidden;fillColor=none;top=0;left=0;bottom=0;right=0;pointerEvents=1;fontSize=16;" vertex="1" parent="hNd8LivyKxEMw5aS4ujh-123">
          <mxGeometry x="110" width="210" height="40" as="geometry">
            <mxRectangle width="210" height="40" as="alternateBounds" />
          </mxGeometry>
        </mxCell>
        <mxCell id="hNd8LivyKxEMw5aS4ujh-126" value="输入框" style="shape=partialRectangle;html=1;whiteSpace=wrap;connectable=0;strokeColor=inherit;overflow=hidden;fillColor=none;top=0;left=0;bottom=0;right=0;pointerEvents=1;fontSize=16;" vertex="1" parent="hNd8LivyKxEMw5aS4ujh-123">
          <mxGeometry x="320" width="140" height="40" as="geometry">
            <mxRectangle width="140" height="40" as="alternateBounds" />
          </mxGeometry>
        </mxCell>
        <mxCell id="hNd8LivyKxEMw5aS4ujh-296" style="shape=tableRow;horizontal=0;startSize=0;swimlaneHead=0;swimlaneBody=0;strokeColor=inherit;top=0;left=0;bottom=0;right=0;collapsible=0;dropTarget=0;fillColor=none;points=[[0,0.5],[1,0.5]];portConstraint=eastwest;fontSize=16;" vertex="1" parent="hNd8LivyKxEMw5aS4ujh-122">
          <mxGeometry y="40" width="460" height="40" as="geometry" />
        </mxCell>
        <mxCell id="hNd8LivyKxEMw5aS4ujh-297" value="退票类型" style="shape=partialRectangle;html=1;whiteSpace=wrap;connectable=0;strokeColor=#b85450;overflow=hidden;fillColor=#f8cecc;top=0;left=0;bottom=0;right=0;pointerEvents=1;fontSize=16;" vertex="1" parent="hNd8LivyKxEMw5aS4ujh-296">
          <mxGeometry width="110" height="40" as="geometry">
            <mxRectangle width="110" height="40" as="alternateBounds" />
          </mxGeometry>
        </mxCell>
        <mxCell id="hNd8LivyKxEMw5aS4ujh-298" value="自愿/非自愿" style="shape=partialRectangle;html=1;whiteSpace=wrap;connectable=0;strokeColor=#b85450;overflow=hidden;fillColor=#f8cecc;top=0;left=0;bottom=0;right=0;pointerEvents=1;fontSize=16;" vertex="1" parent="hNd8LivyKxEMw5aS4ujh-296">
          <mxGeometry x="110" width="210" height="40" as="geometry">
            <mxRectangle width="210" height="40" as="alternateBounds" />
          </mxGeometry>
        </mxCell>
        <mxCell id="hNd8LivyKxEMw5aS4ujh-299" value="单选" style="shape=partialRectangle;html=1;whiteSpace=wrap;connectable=0;strokeColor=#b85450;overflow=hidden;fillColor=#f8cecc;top=0;left=0;bottom=0;right=0;pointerEvents=1;fontSize=16;" vertex="1" parent="hNd8LivyKxEMw5aS4ujh-296">
          <mxGeometry x="320" width="140" height="40" as="geometry">
            <mxRectangle width="140" height="40" as="alternateBounds" />
          </mxGeometry>
        </mxCell>
        <mxCell id="hNd8LivyKxEMw5aS4ujh-308" style="shape=tableRow;horizontal=0;startSize=0;swimlaneHead=0;swimlaneBody=0;strokeColor=inherit;top=0;left=0;bottom=0;right=0;collapsible=0;dropTarget=0;fillColor=none;points=[[0,0.5],[1,0.5]];portConstraint=eastwest;fontSize=16;" vertex="1" parent="hNd8LivyKxEMw5aS4ujh-122">
          <mxGeometry y="80" width="460" height="40" as="geometry" />
        </mxCell>
        <mxCell id="hNd8LivyKxEMw5aS4ujh-309" value="非自愿类型" style="shape=partialRectangle;html=1;whiteSpace=wrap;connectable=0;strokeColor=#b85450;overflow=hidden;fillColor=#f8cecc;top=0;left=0;bottom=0;right=0;pointerEvents=1;fontSize=16;" vertex="1" parent="hNd8LivyKxEMw5aS4ujh-308">
          <mxGeometry width="110" height="40" as="geometry">
            <mxRectangle width="110" height="40" as="alternateBounds" />
          </mxGeometry>
        </mxCell>
        <mxCell id="hNd8LivyKxEMw5aS4ujh-310" value="特殊/航班取消/航变/其他" style="shape=partialRectangle;html=1;whiteSpace=wrap;connectable=0;strokeColor=#b85450;overflow=hidden;fillColor=#f8cecc;top=0;left=0;bottom=0;right=0;pointerEvents=1;fontSize=16;" vertex="1" parent="hNd8LivyKxEMw5aS4ujh-308">
          <mxGeometry x="110" width="210" height="40" as="geometry">
            <mxRectangle width="210" height="40" as="alternateBounds" />
          </mxGeometry>
        </mxCell>
        <mxCell id="hNd8LivyKxEMw5aS4ujh-311" value="下拉" style="shape=partialRectangle;html=1;whiteSpace=wrap;connectable=0;strokeColor=#b85450;overflow=hidden;fillColor=#f8cecc;top=0;left=0;bottom=0;right=0;pointerEvents=1;fontSize=16;" vertex="1" parent="hNd8LivyKxEMw5aS4ujh-308">
          <mxGeometry x="320" width="140" height="40" as="geometry">
            <mxRectangle width="140" height="40" as="alternateBounds" />
          </mxGeometry>
        </mxCell>
        <mxCell id="hNd8LivyKxEMw5aS4ujh-304" style="shape=tableRow;horizontal=0;startSize=0;swimlaneHead=0;swimlaneBody=0;strokeColor=inherit;top=0;left=0;bottom=0;right=0;collapsible=0;dropTarget=0;fillColor=none;points=[[0,0.5],[1,0.5]];portConstraint=eastwest;fontSize=16;" vertex="1" parent="hNd8LivyKxEMw5aS4ujh-122">
          <mxGeometry y="120" width="460" height="46" as="geometry" />
        </mxCell>
        <mxCell id="hNd8LivyKxEMw5aS4ujh-305" value="航变退票条件" style="shape=partialRectangle;html=1;whiteSpace=wrap;connectable=0;strokeColor=#b85450;overflow=hidden;fillColor=#f8cecc;top=0;left=0;bottom=0;right=0;pointerEvents=1;fontSize=16;" vertex="1" parent="hNd8LivyKxEMw5aS4ujh-304">
          <mxGeometry width="110" height="46" as="geometry">
            <mxRectangle width="110" height="46" as="alternateBounds" />
          </mxGeometry>
        </mxCell>
        <mxCell id="hNd8LivyKxEMw5aS4ujh-306" value="30/50/60/240" style="shape=partialRectangle;html=1;whiteSpace=wrap;connectable=0;strokeColor=#b85450;overflow=hidden;fillColor=#f8cecc;top=0;left=0;bottom=0;right=0;pointerEvents=1;fontSize=16;" vertex="1" parent="hNd8LivyKxEMw5aS4ujh-304">
          <mxGeometry x="110" width="210" height="46" as="geometry">
            <mxRectangle width="210" height="46" as="alternateBounds" />
          </mxGeometry>
        </mxCell>
        <mxCell id="hNd8LivyKxEMw5aS4ujh-307" value="输入框（数值，单位分钟）" style="shape=partialRectangle;html=1;whiteSpace=wrap;connectable=0;strokeColor=#b85450;overflow=hidden;fillColor=#f8cecc;top=0;left=0;bottom=0;right=0;pointerEvents=1;fontSize=16;" vertex="1" parent="hNd8LivyKxEMw5aS4ujh-304">
          <mxGeometry x="320" width="140" height="46" as="geometry">
            <mxRectangle width="140" height="46" as="alternateBounds" />
          </mxGeometry>
        </mxCell>
        <mxCell id="hNd8LivyKxEMw5aS4ujh-127" value="" style="shape=tableRow;horizontal=0;startSize=0;swimlaneHead=0;swimlaneBody=0;strokeColor=inherit;top=0;left=0;bottom=0;right=0;collapsible=0;dropTarget=0;fillColor=none;points=[[0,0.5],[1,0.5]];portConstraint=eastwest;fontSize=16;" vertex="1" parent="hNd8LivyKxEMw5aS4ujh-122">
          <mxGeometry y="166" width="460" height="40" as="geometry" />
        </mxCell>
        <mxCell id="hNd8LivyKxEMw5aS4ujh-128" value="是否可退" style="shape=partialRectangle;html=1;whiteSpace=wrap;connectable=0;strokeColor=inherit;overflow=hidden;fillColor=none;top=0;left=0;bottom=0;right=0;pointerEvents=1;fontSize=16;" vertex="1" parent="hNd8LivyKxEMw5aS4ujh-127">
          <mxGeometry width="110" height="40" as="geometry">
            <mxRectangle width="110" height="40" as="alternateBounds" />
          </mxGeometry>
        </mxCell>
        <mxCell id="hNd8LivyKxEMw5aS4ujh-129" value="可退/不可退" style="shape=partialRectangle;html=1;whiteSpace=wrap;connectable=0;strokeColor=inherit;overflow=hidden;fillColor=none;top=0;left=0;bottom=0;right=0;pointerEvents=1;fontSize=16;" vertex="1" parent="hNd8LivyKxEMw5aS4ujh-127">
          <mxGeometry x="110" width="210" height="40" as="geometry">
            <mxRectangle width="210" height="40" as="alternateBounds" />
          </mxGeometry>
        </mxCell>
        <mxCell id="hNd8LivyKxEMw5aS4ujh-130" value="单选框" style="shape=partialRectangle;html=1;whiteSpace=wrap;connectable=0;strokeColor=inherit;overflow=hidden;fillColor=none;top=0;left=0;bottom=0;right=0;pointerEvents=1;fontSize=16;" vertex="1" parent="hNd8LivyKxEMw5aS4ujh-127">
          <mxGeometry x="320" width="140" height="40" as="geometry">
            <mxRectangle width="140" height="40" as="alternateBounds" />
          </mxGeometry>
        </mxCell>
        <mxCell id="hNd8LivyKxEMw5aS4ujh-131" value="" style="shape=tableRow;horizontal=0;startSize=0;swimlaneHead=0;swimlaneBody=0;strokeColor=inherit;top=0;left=0;bottom=0;right=0;collapsible=0;dropTarget=0;fillColor=none;points=[[0,0.5],[1,0.5]];portConstraint=eastwest;fontSize=16;" vertex="1" parent="hNd8LivyKxEMw5aS4ujh-122">
          <mxGeometry y="206" width="460" height="40" as="geometry" />
        </mxCell>
        <mxCell id="hNd8LivyKxEMw5aS4ujh-132" value="服务费" style="shape=partialRectangle;html=1;whiteSpace=wrap;connectable=0;strokeColor=inherit;overflow=hidden;fillColor=none;top=0;left=0;bottom=0;right=0;pointerEvents=1;fontSize=16;" vertex="1" parent="hNd8LivyKxEMw5aS4ujh-131">
          <mxGeometry width="110" height="40" as="geometry">
            <mxRectangle width="110" height="40" as="alternateBounds" />
          </mxGeometry>
        </mxCell>
        <mxCell id="hNd8LivyKxEMw5aS4ujh-133" value="100" style="shape=partialRectangle;html=1;whiteSpace=wrap;connectable=0;strokeColor=inherit;overflow=hidden;fillColor=none;top=0;left=0;bottom=0;right=0;pointerEvents=1;fontSize=16;" vertex="1" parent="hNd8LivyKxEMw5aS4ujh-131">
          <mxGeometry x="110" width="210" height="40" as="geometry">
            <mxRectangle width="210" height="40" as="alternateBounds" />
          </mxGeometry>
        </mxCell>
        <mxCell id="hNd8LivyKxEMw5aS4ujh-134" value="输入框" style="shape=partialRectangle;html=1;whiteSpace=wrap;connectable=0;strokeColor=inherit;overflow=hidden;fillColor=none;top=0;left=0;bottom=0;right=0;pointerEvents=1;fontSize=16;" vertex="1" parent="hNd8LivyKxEMw5aS4ujh-131">
          <mxGeometry x="320" width="140" height="40" as="geometry">
            <mxRectangle width="140" height="40" as="alternateBounds" />
          </mxGeometry>
        </mxCell>
        <mxCell id="hNd8LivyKxEMw5aS4ujh-136" value="" style="shape=tableRow;horizontal=0;startSize=0;swimlaneHead=0;swimlaneBody=0;strokeColor=inherit;top=0;left=0;bottom=0;right=0;collapsible=0;dropTarget=0;fillColor=none;points=[[0,0.5],[1,0.5]];portConstraint=eastwest;fontSize=16;" vertex="1" parent="hNd8LivyKxEMw5aS4ujh-122">
          <mxGeometry y="246" width="460" height="50" as="geometry" />
        </mxCell>
        <mxCell id="hNd8LivyKxEMw5aS4ujh-137" value="票收取费用" style="shape=partialRectangle;html=1;whiteSpace=wrap;connectable=0;strokeColor=inherit;overflow=hidden;fillColor=none;top=0;left=0;bottom=0;right=0;pointerEvents=1;fontSize=16;" vertex="1" parent="hNd8LivyKxEMw5aS4ujh-136">
          <mxGeometry width="110" height="50" as="geometry">
            <mxRectangle width="110" height="50" as="alternateBounds" />
          </mxGeometry>
        </mxCell>
        <mxCell id="hNd8LivyKxEMw5aS4ujh-138" value="100/20%" style="shape=partialRectangle;html=1;whiteSpace=wrap;connectable=0;strokeColor=inherit;overflow=hidden;fillColor=none;top=0;left=0;bottom=0;right=0;pointerEvents=1;fontSize=16;" vertex="1" parent="hNd8LivyKxEMw5aS4ujh-136">
          <mxGeometry x="110" width="210" height="50" as="geometry">
            <mxRectangle width="210" height="50" as="alternateBounds" />
          </mxGeometry>
        </mxCell>
        <mxCell id="hNd8LivyKxEMw5aS4ujh-139" value="输入框" style="shape=partialRectangle;html=1;whiteSpace=wrap;connectable=0;strokeColor=inherit;overflow=hidden;fillColor=none;top=0;left=0;bottom=0;right=0;pointerEvents=1;fontSize=16;" vertex="1" parent="hNd8LivyKxEMw5aS4ujh-136">
          <mxGeometry x="320" width="140" height="50" as="geometry">
            <mxRectangle width="140" height="50" as="alternateBounds" />
          </mxGeometry>
        </mxCell>
        <mxCell id="hNd8LivyKxEMw5aS4ujh-140" value="" style="shape=tableRow;horizontal=0;startSize=0;swimlaneHead=0;swimlaneBody=0;strokeColor=inherit;top=0;left=0;bottom=0;right=0;collapsible=0;dropTarget=0;fillColor=none;points=[[0,0.5],[1,0.5]];portConstraint=eastwest;fontSize=16;" vertex="1" parent="hNd8LivyKxEMw5aS4ujh-122">
          <mxGeometry y="296" width="460" height="40" as="geometry" />
        </mxCell>
        <mxCell id="hNd8LivyKxEMw5aS4ujh-141" value="税收取费用" style="shape=partialRectangle;html=1;whiteSpace=wrap;connectable=0;strokeColor=inherit;overflow=hidden;fillColor=none;top=0;left=0;bottom=0;right=0;pointerEvents=1;fontSize=16;" vertex="1" parent="hNd8LivyKxEMw5aS4ujh-140">
          <mxGeometry width="110" height="40" as="geometry">
            <mxRectangle width="110" height="40" as="alternateBounds" />
          </mxGeometry>
        </mxCell>
        <mxCell id="hNd8LivyKxEMw5aS4ujh-142" value="100/20%" style="shape=partialRectangle;html=1;whiteSpace=wrap;connectable=0;strokeColor=inherit;overflow=hidden;fillColor=none;top=0;left=0;bottom=0;right=0;pointerEvents=1;fontSize=16;" vertex="1" parent="hNd8LivyKxEMw5aS4ujh-140">
          <mxGeometry x="110" width="210" height="40" as="geometry">
            <mxRectangle width="210" height="40" as="alternateBounds" />
          </mxGeometry>
        </mxCell>
        <mxCell id="hNd8LivyKxEMw5aS4ujh-143" value="输入框" style="shape=partialRectangle;html=1;whiteSpace=wrap;connectable=0;strokeColor=inherit;overflow=hidden;fillColor=none;top=0;left=0;bottom=0;right=0;pointerEvents=1;fontSize=16;" vertex="1" parent="hNd8LivyKxEMw5aS4ujh-140">
          <mxGeometry x="320" width="140" height="40" as="geometry">
            <mxRectangle width="140" height="40" as="alternateBounds" />
          </mxGeometry>
        </mxCell>
        <mxCell id="hNd8LivyKxEMw5aS4ujh-144" value="" style="shape=tableRow;horizontal=0;startSize=0;swimlaneHead=0;swimlaneBody=0;strokeColor=inherit;top=0;left=0;bottom=0;right=0;collapsible=0;dropTarget=0;fillColor=none;points=[[0,0.5],[1,0.5]];portConstraint=eastwest;fontSize=16;" vertex="1" parent="hNd8LivyKxEMw5aS4ujh-122">
          <mxGeometry y="336" width="460" height="40" as="geometry" />
        </mxCell>
        <mxCell id="hNd8LivyKxEMw5aS4ujh-145" value="实退金额" style="shape=partialRectangle;html=1;whiteSpace=wrap;connectable=0;strokeColor=inherit;overflow=hidden;fillColor=none;top=0;left=0;bottom=0;right=0;pointerEvents=1;fontSize=16;" vertex="1" parent="hNd8LivyKxEMw5aS4ujh-144">
          <mxGeometry width="110" height="40" as="geometry">
            <mxRectangle width="110" height="40" as="alternateBounds" />
          </mxGeometry>
        </mxCell>
        <mxCell id="hNd8LivyKxEMw5aS4ujh-146" value="100/20%" style="shape=partialRectangle;html=1;whiteSpace=wrap;connectable=0;strokeColor=inherit;overflow=hidden;fillColor=none;top=0;left=0;bottom=0;right=0;pointerEvents=1;fontSize=16;" vertex="1" parent="hNd8LivyKxEMw5aS4ujh-144">
          <mxGeometry x="110" width="210" height="40" as="geometry">
            <mxRectangle width="210" height="40" as="alternateBounds" />
          </mxGeometry>
        </mxCell>
        <mxCell id="hNd8LivyKxEMw5aS4ujh-147" value="输入框" style="shape=partialRectangle;html=1;whiteSpace=wrap;connectable=0;strokeColor=inherit;overflow=hidden;fillColor=none;top=0;left=0;bottom=0;right=0;pointerEvents=1;fontSize=16;" vertex="1" parent="hNd8LivyKxEMw5aS4ujh-144">
          <mxGeometry x="320" width="140" height="40" as="geometry">
            <mxRectangle width="140" height="40" as="alternateBounds" />
          </mxGeometry>
        </mxCell>
        <mxCell id="hNd8LivyKxEMw5aS4ujh-188" value="" style="shape=table;startSize=0;container=1;collapsible=0;childLayout=tableLayout;fontSize=16;direction=south;" vertex="1" parent="1">
          <mxGeometry x="1731" y="850" width="1080" height="290.00000000000045" as="geometry" />
        </mxCell>
        <mxCell id="hNd8LivyKxEMw5aS4ujh-205" value="" style="shape=tableRow;horizontal=0;startSize=0;swimlaneHead=0;swimlaneBody=0;strokeColor=inherit;top=0;left=0;bottom=0;right=0;collapsible=0;dropTarget=0;fillColor=none;points=[[0,0.5],[1,0.5]];portConstraint=eastwest;fontSize=16;fontStyle=0" vertex="1" parent="hNd8LivyKxEMw5aS4ujh-188">
          <mxGeometry width="1080" height="40" as="geometry" />
        </mxCell>
        <mxCell id="hNd8LivyKxEMw5aS4ujh-248" value="名称" style="shape=partialRectangle;html=1;whiteSpace=wrap;connectable=0;strokeColor=#666666;overflow=hidden;fillColor=#f5f5f5;top=0;left=0;bottom=0;right=0;pointerEvents=1;fontSize=16;fontColor=#333333;fontStyle=1" vertex="1" parent="hNd8LivyKxEMw5aS4ujh-205">
          <mxGeometry width="320" height="40" as="geometry">
            <mxRectangle width="320" height="40" as="alternateBounds" />
          </mxGeometry>
        </mxCell>
        <mxCell id="hNd8LivyKxEMw5aS4ujh-292" value="退票类型" style="shape=partialRectangle;html=1;whiteSpace=wrap;connectable=0;strokeColor=#666666;overflow=hidden;fillColor=#f5f5f5;top=0;left=0;bottom=0;right=0;pointerEvents=1;fontSize=16;fontColor=#333333;fontStyle=1" vertex="1" parent="hNd8LivyKxEMw5aS4ujh-205">
          <mxGeometry x="320" width="100" height="40" as="geometry">
            <mxRectangle width="100" height="40" as="alternateBounds" />
          </mxGeometry>
        </mxCell>
        <mxCell id="hNd8LivyKxEMw5aS4ujh-326" value="类型" style="shape=partialRectangle;html=1;whiteSpace=wrap;connectable=0;strokeColor=#666666;overflow=hidden;fillColor=#f5f5f5;top=0;left=0;bottom=0;right=0;pointerEvents=1;fontSize=16;fontColor=#333333;fontStyle=1" vertex="1" parent="hNd8LivyKxEMw5aS4ujh-205">
          <mxGeometry x="420" width="100" height="40" as="geometry">
            <mxRectangle width="100" height="40" as="alternateBounds" />
          </mxGeometry>
        </mxCell>
        <mxCell id="hNd8LivyKxEMw5aS4ujh-321" value="条件" style="shape=partialRectangle;html=1;whiteSpace=wrap;connectable=0;strokeColor=#666666;overflow=hidden;fillColor=#f5f5f5;top=0;left=0;bottom=0;right=0;pointerEvents=1;fontSize=16;fontColor=#333333;fontStyle=1" vertex="1" parent="hNd8LivyKxEMw5aS4ujh-205">
          <mxGeometry x="520" width="100" height="40" as="geometry">
            <mxRectangle width="100" height="40" as="alternateBounds" />
          </mxGeometry>
        </mxCell>
        <mxCell id="hNd8LivyKxEMw5aS4ujh-206" value="是否可退" style="shape=partialRectangle;html=1;whiteSpace=wrap;connectable=0;strokeColor=#666666;overflow=hidden;fillColor=#f5f5f5;top=0;left=0;bottom=0;right=0;pointerEvents=1;fontSize=16;fontColor=#333333;fontStyle=1" vertex="1" parent="hNd8LivyKxEMw5aS4ujh-205">
          <mxGeometry x="620" width="80" height="40" as="geometry">
            <mxRectangle width="80" height="40" as="alternateBounds" />
          </mxGeometry>
        </mxCell>
        <mxCell id="hNd8LivyKxEMw5aS4ujh-207" value="&lt;span style=&quot;color: rgb(0, 0, 0); font-family: Helvetica; font-size: 16px; font-style: normal; font-variant-ligatures: normal; font-variant-caps: normal; letter-spacing: normal; orphans: 2; text-align: center; text-indent: 0px; text-transform: none; widows: 2; word-spacing: 0px; -webkit-text-stroke-width: 0px; white-space: normal; background-color: rgb(251, 251, 251); text-decoration-thickness: initial; text-decoration-style: initial; text-decoration-color: initial; float: none; display: inline !important;&quot;&gt;服务费&lt;/span&gt;" style="shape=partialRectangle;html=1;whiteSpace=wrap;connectable=0;strokeColor=#666666;overflow=hidden;fillColor=#f5f5f5;top=0;left=0;bottom=0;right=0;pointerEvents=1;fontSize=16;fontColor=#333333;fontStyle=1" vertex="1" parent="hNd8LivyKxEMw5aS4ujh-205">
          <mxGeometry x="700" width="70" height="40" as="geometry">
            <mxRectangle width="70" height="40" as="alternateBounds" />
          </mxGeometry>
        </mxCell>
        <mxCell id="hNd8LivyKxEMw5aS4ujh-208" value="票收取费用" style="shape=partialRectangle;html=1;whiteSpace=wrap;connectable=0;strokeColor=#666666;overflow=hidden;fillColor=#f5f5f5;top=0;left=0;bottom=0;right=0;pointerEvents=1;fontSize=16;fontColor=#333333;fontStyle=1" vertex="1" parent="hNd8LivyKxEMw5aS4ujh-205">
          <mxGeometry x="770" width="110" height="40" as="geometry">
            <mxRectangle width="110" height="40" as="alternateBounds" />
          </mxGeometry>
        </mxCell>
        <mxCell id="hNd8LivyKxEMw5aS4ujh-274" value="税收取费用" style="shape=partialRectangle;html=1;whiteSpace=wrap;connectable=0;strokeColor=#666666;overflow=hidden;fillColor=#f5f5f5;top=0;left=0;bottom=0;right=0;pointerEvents=1;fontSize=16;fontColor=#333333;fontStyle=1" vertex="1" parent="hNd8LivyKxEMw5aS4ujh-205">
          <mxGeometry x="880" width="100" height="40" as="geometry">
            <mxRectangle width="100" height="40" as="alternateBounds" />
          </mxGeometry>
        </mxCell>
        <mxCell id="hNd8LivyKxEMw5aS4ujh-269" value="实退金额" style="shape=partialRectangle;html=1;whiteSpace=wrap;connectable=0;strokeColor=#666666;overflow=hidden;fillColor=#f5f5f5;top=0;left=0;bottom=0;right=0;pointerEvents=1;fontSize=16;fontColor=#333333;fontStyle=1" vertex="1" parent="hNd8LivyKxEMw5aS4ujh-205">
          <mxGeometry x="980" width="100" height="40" as="geometry">
            <mxRectangle width="100" height="40" as="alternateBounds" />
          </mxGeometry>
        </mxCell>
        <mxCell id="hNd8LivyKxEMw5aS4ujh-189" value="" style="shape=tableRow;horizontal=0;startSize=0;swimlaneHead=0;swimlaneBody=0;strokeColor=inherit;top=0;left=0;bottom=0;right=0;collapsible=0;dropTarget=0;fillColor=none;points=[[0,0.5],[1,0.5]];portConstraint=eastwest;fontSize=16;" vertex="1" parent="hNd8LivyKxEMw5aS4ujh-188">
          <mxGeometry y="40" width="1080" height="50" as="geometry" />
        </mxCell>
        <mxCell id="hNd8LivyKxEMw5aS4ujh-249" value="7C-特殊事件退票" style="shape=partialRectangle;html=1;whiteSpace=wrap;connectable=0;strokeColor=inherit;overflow=hidden;fillColor=none;top=0;left=0;bottom=0;right=0;pointerEvents=1;fontSize=16;" vertex="1" parent="hNd8LivyKxEMw5aS4ujh-189">
          <mxGeometry width="320" height="50" as="geometry">
            <mxRectangle width="320" height="50" as="alternateBounds" />
          </mxGeometry>
        </mxCell>
        <mxCell id="hNd8LivyKxEMw5aS4ujh-293" value="非自愿" style="shape=partialRectangle;html=1;whiteSpace=wrap;connectable=0;strokeColor=inherit;overflow=hidden;fillColor=none;top=0;left=0;bottom=0;right=0;pointerEvents=1;fontSize=16;" vertex="1" parent="hNd8LivyKxEMw5aS4ujh-189">
          <mxGeometry x="320" width="100" height="50" as="geometry">
            <mxRectangle width="100" height="50" as="alternateBounds" />
          </mxGeometry>
        </mxCell>
        <mxCell id="hNd8LivyKxEMw5aS4ujh-327" value="特殊" style="shape=partialRectangle;html=1;whiteSpace=wrap;connectable=0;strokeColor=inherit;overflow=hidden;fillColor=none;top=0;left=0;bottom=0;right=0;pointerEvents=1;fontSize=16;" vertex="1" parent="hNd8LivyKxEMw5aS4ujh-189">
          <mxGeometry x="420" width="100" height="50" as="geometry">
            <mxRectangle width="100" height="50" as="alternateBounds" />
          </mxGeometry>
        </mxCell>
        <mxCell id="hNd8LivyKxEMw5aS4ujh-322" value="-" style="shape=partialRectangle;html=1;whiteSpace=wrap;connectable=0;strokeColor=inherit;overflow=hidden;fillColor=none;top=0;left=0;bottom=0;right=0;pointerEvents=1;fontSize=16;" vertex="1" parent="hNd8LivyKxEMw5aS4ujh-189">
          <mxGeometry x="520" width="100" height="50" as="geometry">
            <mxRectangle width="100" height="50" as="alternateBounds" />
          </mxGeometry>
        </mxCell>
        <mxCell id="hNd8LivyKxEMw5aS4ujh-190" value="可退" style="shape=partialRectangle;html=1;whiteSpace=wrap;connectable=0;strokeColor=inherit;overflow=hidden;fillColor=none;top=0;left=0;bottom=0;right=0;pointerEvents=1;fontSize=16;" vertex="1" parent="hNd8LivyKxEMw5aS4ujh-189">
          <mxGeometry x="620" width="80" height="50" as="geometry">
            <mxRectangle width="80" height="50" as="alternateBounds" />
          </mxGeometry>
        </mxCell>
        <mxCell id="hNd8LivyKxEMw5aS4ujh-191" value="100" style="shape=partialRectangle;html=1;whiteSpace=wrap;connectable=0;strokeColor=inherit;overflow=hidden;fillColor=none;top=0;left=0;bottom=0;right=0;pointerEvents=1;fontSize=16;" vertex="1" parent="hNd8LivyKxEMw5aS4ujh-189">
          <mxGeometry x="700" width="70" height="50" as="geometry">
            <mxRectangle width="70" height="50" as="alternateBounds" />
          </mxGeometry>
        </mxCell>
        <mxCell id="hNd8LivyKxEMw5aS4ujh-192" value="0" style="shape=partialRectangle;html=1;whiteSpace=wrap;connectable=0;strokeColor=inherit;overflow=hidden;fillColor=none;top=0;left=0;bottom=0;right=0;pointerEvents=1;fontSize=16;" vertex="1" parent="hNd8LivyKxEMw5aS4ujh-189">
          <mxGeometry x="770" width="110" height="50" as="geometry">
            <mxRectangle width="110" height="50" as="alternateBounds" />
          </mxGeometry>
        </mxCell>
        <mxCell id="hNd8LivyKxEMw5aS4ujh-275" value="0" style="shape=partialRectangle;html=1;whiteSpace=wrap;connectable=0;strokeColor=inherit;overflow=hidden;fillColor=none;top=0;left=0;bottom=0;right=0;pointerEvents=1;fontSize=16;" vertex="1" parent="hNd8LivyKxEMw5aS4ujh-189">
          <mxGeometry x="880" width="100" height="50" as="geometry">
            <mxRectangle width="100" height="50" as="alternateBounds" />
          </mxGeometry>
        </mxCell>
        <mxCell id="hNd8LivyKxEMw5aS4ujh-270" value="100%" style="shape=partialRectangle;html=1;whiteSpace=wrap;connectable=0;strokeColor=inherit;overflow=hidden;fillColor=none;top=0;left=0;bottom=0;right=0;pointerEvents=1;fontSize=16;" vertex="1" parent="hNd8LivyKxEMw5aS4ujh-189">
          <mxGeometry x="980" width="100" height="50" as="geometry">
            <mxRectangle width="100" height="50" as="alternateBounds" />
          </mxGeometry>
        </mxCell>
        <mxCell id="hNd8LivyKxEMw5aS4ujh-201" value="" style="shape=tableRow;horizontal=0;startSize=0;swimlaneHead=0;swimlaneBody=0;strokeColor=inherit;top=0;left=0;bottom=0;right=0;collapsible=0;dropTarget=0;fillColor=none;points=[[0,0.5],[1,0.5]];portConstraint=eastwest;fontSize=16;" vertex="1" parent="hNd8LivyKxEMw5aS4ujh-188">
          <mxGeometry y="90" width="1080" height="40" as="geometry" />
        </mxCell>
        <mxCell id="hNd8LivyKxEMw5aS4ujh-250" value="去哪爱鸽主站-打包产品-5J" style="shape=partialRectangle;html=1;whiteSpace=wrap;connectable=0;strokeColor=inherit;overflow=hidden;fillColor=none;top=0;left=0;bottom=0;right=0;pointerEvents=1;fontSize=16;" vertex="1" parent="hNd8LivyKxEMw5aS4ujh-201">
          <mxGeometry width="320" height="40" as="geometry">
            <mxRectangle width="320" height="40" as="alternateBounds" />
          </mxGeometry>
        </mxCell>
        <mxCell id="hNd8LivyKxEMw5aS4ujh-294" value="自愿" style="shape=partialRectangle;html=1;whiteSpace=wrap;connectable=0;strokeColor=inherit;overflow=hidden;fillColor=none;top=0;left=0;bottom=0;right=0;pointerEvents=1;fontSize=16;" vertex="1" parent="hNd8LivyKxEMw5aS4ujh-201">
          <mxGeometry x="320" width="100" height="40" as="geometry">
            <mxRectangle width="100" height="40" as="alternateBounds" />
          </mxGeometry>
        </mxCell>
        <mxCell id="hNd8LivyKxEMw5aS4ujh-328" value="-" style="shape=partialRectangle;html=1;whiteSpace=wrap;connectable=0;strokeColor=inherit;overflow=hidden;fillColor=none;top=0;left=0;bottom=0;right=0;pointerEvents=1;fontSize=16;" vertex="1" parent="hNd8LivyKxEMw5aS4ujh-201">
          <mxGeometry x="420" width="100" height="40" as="geometry">
            <mxRectangle width="100" height="40" as="alternateBounds" />
          </mxGeometry>
        </mxCell>
        <mxCell id="hNd8LivyKxEMw5aS4ujh-323" value="-" style="shape=partialRectangle;html=1;whiteSpace=wrap;connectable=0;strokeColor=inherit;overflow=hidden;fillColor=none;top=0;left=0;bottom=0;right=0;pointerEvents=1;fontSize=16;" vertex="1" parent="hNd8LivyKxEMw5aS4ujh-201">
          <mxGeometry x="520" width="100" height="40" as="geometry">
            <mxRectangle width="100" height="40" as="alternateBounds" />
          </mxGeometry>
        </mxCell>
        <mxCell id="hNd8LivyKxEMw5aS4ujh-202" value="可退" style="shape=partialRectangle;html=1;whiteSpace=wrap;connectable=0;strokeColor=inherit;overflow=hidden;fillColor=none;top=0;left=0;bottom=0;right=0;pointerEvents=1;fontSize=16;" vertex="1" parent="hNd8LivyKxEMw5aS4ujh-201">
          <mxGeometry x="620" width="80" height="40" as="geometry">
            <mxRectangle width="80" height="40" as="alternateBounds" />
          </mxGeometry>
        </mxCell>
        <mxCell id="hNd8LivyKxEMw5aS4ujh-203" value="0" style="shape=partialRectangle;html=1;whiteSpace=wrap;connectable=0;strokeColor=inherit;overflow=hidden;fillColor=none;top=0;left=0;bottom=0;right=0;pointerEvents=1;fontSize=16;" vertex="1" parent="hNd8LivyKxEMw5aS4ujh-201">
          <mxGeometry x="700" width="70" height="40" as="geometry">
            <mxRectangle width="70" height="40" as="alternateBounds" />
          </mxGeometry>
        </mxCell>
        <mxCell id="hNd8LivyKxEMw5aS4ujh-204" value="0" style="shape=partialRectangle;html=1;whiteSpace=wrap;connectable=0;strokeColor=inherit;overflow=hidden;fillColor=none;top=0;left=0;bottom=0;right=0;pointerEvents=1;fontSize=16;" vertex="1" parent="hNd8LivyKxEMw5aS4ujh-201">
          <mxGeometry x="770" width="110" height="40" as="geometry">
            <mxRectangle width="110" height="40" as="alternateBounds" />
          </mxGeometry>
        </mxCell>
        <mxCell id="hNd8LivyKxEMw5aS4ujh-276" value="0" style="shape=partialRectangle;html=1;whiteSpace=wrap;connectable=0;strokeColor=inherit;overflow=hidden;fillColor=none;top=0;left=0;bottom=0;right=0;pointerEvents=1;fontSize=16;" vertex="1" parent="hNd8LivyKxEMw5aS4ujh-201">
          <mxGeometry x="880" width="100" height="40" as="geometry">
            <mxRectangle width="100" height="40" as="alternateBounds" />
          </mxGeometry>
        </mxCell>
        <mxCell id="hNd8LivyKxEMw5aS4ujh-271" value="5" style="shape=partialRectangle;html=1;whiteSpace=wrap;connectable=0;strokeColor=inherit;overflow=hidden;fillColor=none;top=0;left=0;bottom=0;right=0;pointerEvents=1;fontSize=16;" vertex="1" parent="hNd8LivyKxEMw5aS4ujh-201">
          <mxGeometry x="980" width="100" height="40" as="geometry">
            <mxRectangle width="100" height="40" as="alternateBounds" />
          </mxGeometry>
        </mxCell>
        <mxCell id="hNd8LivyKxEMw5aS4ujh-197" value="" style="shape=tableRow;horizontal=0;startSize=0;swimlaneHead=0;swimlaneBody=0;strokeColor=inherit;top=0;left=0;bottom=0;right=0;collapsible=0;dropTarget=0;fillColor=none;points=[[0,0.5],[1,0.5]];portConstraint=eastwest;fontSize=16;" vertex="1" parent="hNd8LivyKxEMw5aS4ujh-188">
          <mxGeometry y="130" width="1080" height="40" as="geometry" />
        </mxCell>
        <mxCell id="hNd8LivyKxEMw5aS4ujh-252" value="携程爱鸽-基础产品-KR-VJ-韩国退票" style="shape=partialRectangle;html=1;whiteSpace=wrap;connectable=0;strokeColor=inherit;overflow=hidden;fillColor=none;top=0;left=0;bottom=0;right=0;pointerEvents=1;fontSize=16;" vertex="1" parent="hNd8LivyKxEMw5aS4ujh-197">
          <mxGeometry width="320" height="40" as="geometry">
            <mxRectangle width="320" height="40" as="alternateBounds" />
          </mxGeometry>
        </mxCell>
        <mxCell id="hNd8LivyKxEMw5aS4ujh-295" value="自愿" style="shape=partialRectangle;html=1;whiteSpace=wrap;connectable=0;strokeColor=inherit;overflow=hidden;fillColor=none;top=0;left=0;bottom=0;right=0;pointerEvents=1;fontSize=16;" vertex="1" parent="hNd8LivyKxEMw5aS4ujh-197">
          <mxGeometry x="320" width="100" height="40" as="geometry">
            <mxRectangle width="100" height="40" as="alternateBounds" />
          </mxGeometry>
        </mxCell>
        <mxCell id="hNd8LivyKxEMw5aS4ujh-329" value="-" style="shape=partialRectangle;html=1;whiteSpace=wrap;connectable=0;strokeColor=inherit;overflow=hidden;fillColor=none;top=0;left=0;bottom=0;right=0;pointerEvents=1;fontSize=16;" vertex="1" parent="hNd8LivyKxEMw5aS4ujh-197">
          <mxGeometry x="420" width="100" height="40" as="geometry">
            <mxRectangle width="100" height="40" as="alternateBounds" />
          </mxGeometry>
        </mxCell>
        <mxCell id="hNd8LivyKxEMw5aS4ujh-324" value="-" style="shape=partialRectangle;html=1;whiteSpace=wrap;connectable=0;strokeColor=inherit;overflow=hidden;fillColor=none;top=0;left=0;bottom=0;right=0;pointerEvents=1;fontSize=16;" vertex="1" parent="hNd8LivyKxEMw5aS4ujh-197">
          <mxGeometry x="520" width="100" height="40" as="geometry">
            <mxRectangle width="100" height="40" as="alternateBounds" />
          </mxGeometry>
        </mxCell>
        <mxCell id="hNd8LivyKxEMw5aS4ujh-198" value="可退" style="shape=partialRectangle;html=1;whiteSpace=wrap;connectable=0;strokeColor=inherit;overflow=hidden;fillColor=none;top=0;left=0;bottom=0;right=0;pointerEvents=1;fontSize=16;" vertex="1" parent="hNd8LivyKxEMw5aS4ujh-197">
          <mxGeometry x="620" width="80" height="40" as="geometry">
            <mxRectangle width="80" height="40" as="alternateBounds" />
          </mxGeometry>
        </mxCell>
        <mxCell id="hNd8LivyKxEMw5aS4ujh-199" value="100" style="shape=partialRectangle;html=1;whiteSpace=wrap;connectable=0;strokeColor=inherit;overflow=hidden;fillColor=none;top=0;left=0;bottom=0;right=0;pointerEvents=1;fontSize=16;" vertex="1" parent="hNd8LivyKxEMw5aS4ujh-197">
          <mxGeometry x="700" width="70" height="40" as="geometry">
            <mxRectangle width="70" height="40" as="alternateBounds" />
          </mxGeometry>
        </mxCell>
        <mxCell id="hNd8LivyKxEMw5aS4ujh-200" value="0" style="shape=partialRectangle;html=1;whiteSpace=wrap;connectable=0;strokeColor=inherit;overflow=hidden;fillColor=none;top=0;left=0;bottom=0;right=0;pointerEvents=1;fontSize=16;" vertex="1" parent="hNd8LivyKxEMw5aS4ujh-197">
          <mxGeometry x="770" width="110" height="40" as="geometry">
            <mxRectangle width="110" height="40" as="alternateBounds" />
          </mxGeometry>
        </mxCell>
        <mxCell id="hNd8LivyKxEMw5aS4ujh-278" value="0" style="shape=partialRectangle;html=1;whiteSpace=wrap;connectable=0;strokeColor=inherit;overflow=hidden;fillColor=none;top=0;left=0;bottom=0;right=0;pointerEvents=1;fontSize=16;" vertex="1" parent="hNd8LivyKxEMw5aS4ujh-197">
          <mxGeometry x="880" width="100" height="40" as="geometry">
            <mxRectangle width="100" height="40" as="alternateBounds" />
          </mxGeometry>
        </mxCell>
        <mxCell id="hNd8LivyKxEMw5aS4ujh-273" value="100%" style="shape=partialRectangle;html=1;whiteSpace=wrap;connectable=0;strokeColor=inherit;overflow=hidden;fillColor=none;top=0;left=0;bottom=0;right=0;pointerEvents=1;fontSize=16;" vertex="1" parent="hNd8LivyKxEMw5aS4ujh-197">
          <mxGeometry x="980" width="100" height="40" as="geometry">
            <mxRectangle width="100" height="40" as="alternateBounds" />
          </mxGeometry>
        </mxCell>
        <mxCell id="hNd8LivyKxEMw5aS4ujh-341" style="shape=tableRow;horizontal=0;startSize=0;swimlaneHead=0;swimlaneBody=0;strokeColor=inherit;top=0;left=0;bottom=0;right=0;collapsible=0;dropTarget=0;fillColor=none;points=[[0,0.5],[1,0.5]];portConstraint=eastwest;fontSize=16;" vertex="1" parent="hNd8LivyKxEMw5aS4ujh-188">
          <mxGeometry y="170" width="1080" height="40" as="geometry" />
        </mxCell>
        <mxCell id="hNd8LivyKxEMw5aS4ujh-342" value="携程爱鸽-基础产品-VJ-普通退票" style="shape=partialRectangle;html=1;whiteSpace=wrap;connectable=0;strokeColor=inherit;overflow=hidden;fillColor=none;top=0;left=0;bottom=0;right=0;pointerEvents=1;fontSize=16;" vertex="1" parent="hNd8LivyKxEMw5aS4ujh-341">
          <mxGeometry width="320" height="40" as="geometry">
            <mxRectangle width="320" height="40" as="alternateBounds" />
          </mxGeometry>
        </mxCell>
        <mxCell id="hNd8LivyKxEMw5aS4ujh-343" value="非自愿" style="shape=partialRectangle;html=1;whiteSpace=wrap;connectable=0;strokeColor=inherit;overflow=hidden;fillColor=none;top=0;left=0;bottom=0;right=0;pointerEvents=1;fontSize=16;" vertex="1" parent="hNd8LivyKxEMw5aS4ujh-341">
          <mxGeometry x="320" width="100" height="40" as="geometry">
            <mxRectangle width="100" height="40" as="alternateBounds" />
          </mxGeometry>
        </mxCell>
        <mxCell id="hNd8LivyKxEMw5aS4ujh-344" value="航变取消" style="shape=partialRectangle;html=1;whiteSpace=wrap;connectable=0;strokeColor=inherit;overflow=hidden;fillColor=none;top=0;left=0;bottom=0;right=0;pointerEvents=1;fontSize=16;" vertex="1" parent="hNd8LivyKxEMw5aS4ujh-341">
          <mxGeometry x="420" width="100" height="40" as="geometry">
            <mxRectangle width="100" height="40" as="alternateBounds" />
          </mxGeometry>
        </mxCell>
        <mxCell id="hNd8LivyKxEMw5aS4ujh-345" value="-" style="shape=partialRectangle;html=1;whiteSpace=wrap;connectable=0;strokeColor=inherit;overflow=hidden;fillColor=none;top=0;left=0;bottom=0;right=0;pointerEvents=1;fontSize=16;" vertex="1" parent="hNd8LivyKxEMw5aS4ujh-341">
          <mxGeometry x="520" width="100" height="40" as="geometry">
            <mxRectangle width="100" height="40" as="alternateBounds" />
          </mxGeometry>
        </mxCell>
        <mxCell id="hNd8LivyKxEMw5aS4ujh-346" value="&lt;span style=&quot;color: rgb(0, 0, 0); font-family: Helvetica; font-size: 16px; font-style: normal; font-variant-ligatures: normal; font-variant-caps: normal; font-weight: 400; letter-spacing: normal; orphans: 2; text-align: center; text-indent: 0px; text-transform: none; widows: 2; word-spacing: 0px; -webkit-text-stroke-width: 0px; white-space: normal; background-color: rgb(251, 251, 251); text-decoration-thickness: initial; text-decoration-style: initial; text-decoration-color: initial; float: none; display: inline !important;&quot;&gt;可退&lt;/span&gt;" style="shape=partialRectangle;html=1;whiteSpace=wrap;connectable=0;strokeColor=inherit;overflow=hidden;fillColor=none;top=0;left=0;bottom=0;right=0;pointerEvents=1;fontSize=16;" vertex="1" parent="hNd8LivyKxEMw5aS4ujh-341">
          <mxGeometry x="620" width="80" height="40" as="geometry">
            <mxRectangle width="80" height="40" as="alternateBounds" />
          </mxGeometry>
        </mxCell>
        <mxCell id="hNd8LivyKxEMw5aS4ujh-347" value="100" style="shape=partialRectangle;html=1;whiteSpace=wrap;connectable=0;strokeColor=inherit;overflow=hidden;fillColor=none;top=0;left=0;bottom=0;right=0;pointerEvents=1;fontSize=16;" vertex="1" parent="hNd8LivyKxEMw5aS4ujh-341">
          <mxGeometry x="700" width="70" height="40" as="geometry">
            <mxRectangle width="70" height="40" as="alternateBounds" />
          </mxGeometry>
        </mxCell>
        <mxCell id="hNd8LivyKxEMw5aS4ujh-348" value="0" style="shape=partialRectangle;html=1;whiteSpace=wrap;connectable=0;strokeColor=inherit;overflow=hidden;fillColor=none;top=0;left=0;bottom=0;right=0;pointerEvents=1;fontSize=16;" vertex="1" parent="hNd8LivyKxEMw5aS4ujh-341">
          <mxGeometry x="770" width="110" height="40" as="geometry">
            <mxRectangle width="110" height="40" as="alternateBounds" />
          </mxGeometry>
        </mxCell>
        <mxCell id="hNd8LivyKxEMw5aS4ujh-349" value="0" style="shape=partialRectangle;html=1;whiteSpace=wrap;connectable=0;strokeColor=inherit;overflow=hidden;fillColor=none;top=0;left=0;bottom=0;right=0;pointerEvents=1;fontSize=16;" vertex="1" parent="hNd8LivyKxEMw5aS4ujh-341">
          <mxGeometry x="880" width="100" height="40" as="geometry">
            <mxRectangle width="100" height="40" as="alternateBounds" />
          </mxGeometry>
        </mxCell>
        <mxCell id="hNd8LivyKxEMw5aS4ujh-350" value="100%" style="shape=partialRectangle;html=1;whiteSpace=wrap;connectable=0;strokeColor=inherit;overflow=hidden;fillColor=none;top=0;left=0;bottom=0;right=0;pointerEvents=1;fontSize=16;" vertex="1" parent="hNd8LivyKxEMw5aS4ujh-341">
          <mxGeometry x="980" width="100" height="40" as="geometry">
            <mxRectangle width="100" height="40" as="alternateBounds" />
          </mxGeometry>
        </mxCell>
        <mxCell id="hNd8LivyKxEMw5aS4ujh-312" style="shape=tableRow;horizontal=0;startSize=0;swimlaneHead=0;swimlaneBody=0;strokeColor=inherit;top=0;left=0;bottom=0;right=0;collapsible=0;dropTarget=0;fillColor=none;points=[[0,0.5],[1,0.5]];portConstraint=eastwest;fontSize=16;" vertex="1" parent="hNd8LivyKxEMw5aS4ujh-188">
          <mxGeometry y="210" width="1080" height="40" as="geometry" />
        </mxCell>
        <mxCell id="hNd8LivyKxEMw5aS4ujh-313" value="&lt;span style=&quot;color: rgb(0, 0, 0); font-family: Helvetica; font-size: 16px; font-style: normal; font-variant-ligatures: normal; font-variant-caps: normal; font-weight: 400; letter-spacing: normal; orphans: 2; text-align: center; text-indent: 0px; text-transform: none; widows: 2; word-spacing: 0px; -webkit-text-stroke-width: 0px; white-space: normal; background-color: rgb(251, 251, 251); text-decoration-thickness: initial; text-decoration-style: initial; text-decoration-color: initial; float: none; display: inline !important;&quot;&gt;携程爱鸽-基础产品-VJ-普通退票&lt;/span&gt;" style="shape=partialRectangle;html=1;whiteSpace=wrap;connectable=0;strokeColor=inherit;overflow=hidden;fillColor=none;top=0;left=0;bottom=0;right=0;pointerEvents=1;fontSize=16;" vertex="1" parent="hNd8LivyKxEMw5aS4ujh-312">
          <mxGeometry width="320" height="40" as="geometry">
            <mxRectangle width="320" height="40" as="alternateBounds" />
          </mxGeometry>
        </mxCell>
        <mxCell id="hNd8LivyKxEMw5aS4ujh-314" value="非自愿" style="shape=partialRectangle;html=1;whiteSpace=wrap;connectable=0;strokeColor=inherit;overflow=hidden;fillColor=none;top=0;left=0;bottom=0;right=0;pointerEvents=1;fontSize=16;" vertex="1" parent="hNd8LivyKxEMw5aS4ujh-312">
          <mxGeometry x="320" width="100" height="40" as="geometry">
            <mxRectangle width="100" height="40" as="alternateBounds" />
          </mxGeometry>
        </mxCell>
        <mxCell id="hNd8LivyKxEMw5aS4ujh-330" value="航变" style="shape=partialRectangle;html=1;whiteSpace=wrap;connectable=0;strokeColor=inherit;overflow=hidden;fillColor=none;top=0;left=0;bottom=0;right=0;pointerEvents=1;fontSize=16;" vertex="1" parent="hNd8LivyKxEMw5aS4ujh-312">
          <mxGeometry x="420" width="100" height="40" as="geometry">
            <mxRectangle width="100" height="40" as="alternateBounds" />
          </mxGeometry>
        </mxCell>
        <mxCell id="hNd8LivyKxEMw5aS4ujh-325" value="240" style="shape=partialRectangle;html=1;whiteSpace=wrap;connectable=0;strokeColor=inherit;overflow=hidden;fillColor=none;top=0;left=0;bottom=0;right=0;pointerEvents=1;fontSize=16;" vertex="1" parent="hNd8LivyKxEMw5aS4ujh-312">
          <mxGeometry x="520" width="100" height="40" as="geometry">
            <mxRectangle width="100" height="40" as="alternateBounds" />
          </mxGeometry>
        </mxCell>
        <mxCell id="hNd8LivyKxEMw5aS4ujh-315" value="可退" style="shape=partialRectangle;html=1;whiteSpace=wrap;connectable=0;strokeColor=inherit;overflow=hidden;fillColor=none;top=0;left=0;bottom=0;right=0;pointerEvents=1;fontSize=16;" vertex="1" parent="hNd8LivyKxEMw5aS4ujh-312">
          <mxGeometry x="620" width="80" height="40" as="geometry">
            <mxRectangle width="80" height="40" as="alternateBounds" />
          </mxGeometry>
        </mxCell>
        <mxCell id="hNd8LivyKxEMw5aS4ujh-316" value="100" style="shape=partialRectangle;html=1;whiteSpace=wrap;connectable=0;strokeColor=inherit;overflow=hidden;fillColor=none;top=0;left=0;bottom=0;right=0;pointerEvents=1;fontSize=16;" vertex="1" parent="hNd8LivyKxEMw5aS4ujh-312">
          <mxGeometry x="700" width="70" height="40" as="geometry">
            <mxRectangle width="70" height="40" as="alternateBounds" />
          </mxGeometry>
        </mxCell>
        <mxCell id="hNd8LivyKxEMw5aS4ujh-317" value="0" style="shape=partialRectangle;html=1;whiteSpace=wrap;connectable=0;strokeColor=inherit;overflow=hidden;fillColor=none;top=0;left=0;bottom=0;right=0;pointerEvents=1;fontSize=16;" vertex="1" parent="hNd8LivyKxEMw5aS4ujh-312">
          <mxGeometry x="770" width="110" height="40" as="geometry">
            <mxRectangle width="110" height="40" as="alternateBounds" />
          </mxGeometry>
        </mxCell>
        <mxCell id="hNd8LivyKxEMw5aS4ujh-318" value="0" style="shape=partialRectangle;html=1;whiteSpace=wrap;connectable=0;strokeColor=inherit;overflow=hidden;fillColor=none;top=0;left=0;bottom=0;right=0;pointerEvents=1;fontSize=16;" vertex="1" parent="hNd8LivyKxEMw5aS4ujh-312">
          <mxGeometry x="880" width="100" height="40" as="geometry">
            <mxRectangle width="100" height="40" as="alternateBounds" />
          </mxGeometry>
        </mxCell>
        <mxCell id="hNd8LivyKxEMw5aS4ujh-319" value="100%" style="shape=partialRectangle;html=1;whiteSpace=wrap;connectable=0;strokeColor=inherit;overflow=hidden;fillColor=none;top=0;left=0;bottom=0;right=0;pointerEvents=1;fontSize=16;" vertex="1" parent="hNd8LivyKxEMw5aS4ujh-312">
          <mxGeometry x="980" width="100" height="40" as="geometry">
            <mxRectangle width="100" height="40" as="alternateBounds" />
          </mxGeometry>
        </mxCell>
        <mxCell id="hNd8LivyKxEMw5aS4ujh-331" style="shape=tableRow;horizontal=0;startSize=0;swimlaneHead=0;swimlaneBody=0;strokeColor=inherit;top=0;left=0;bottom=0;right=0;collapsible=0;dropTarget=0;fillColor=none;points=[[0,0.5],[1,0.5]];portConstraint=eastwest;fontSize=16;" vertex="1" parent="hNd8LivyKxEMw5aS4ujh-188">
          <mxGeometry y="250" width="1080" height="40" as="geometry" />
        </mxCell>
        <mxCell id="hNd8LivyKxEMw5aS4ujh-332" value="携程爱鸽-基础产品-VJ-普通退票" style="shape=partialRectangle;html=1;whiteSpace=wrap;connectable=0;strokeColor=inherit;overflow=hidden;fillColor=none;top=0;left=0;bottom=0;right=0;pointerEvents=1;fontSize=16;" vertex="1" parent="hNd8LivyKxEMw5aS4ujh-331">
          <mxGeometry width="320" height="40" as="geometry">
            <mxRectangle width="320" height="40" as="alternateBounds" />
          </mxGeometry>
        </mxCell>
        <mxCell id="hNd8LivyKxEMw5aS4ujh-333" value="非自愿" style="shape=partialRectangle;html=1;whiteSpace=wrap;connectable=0;strokeColor=inherit;overflow=hidden;fillColor=none;top=0;left=0;bottom=0;right=0;pointerEvents=1;fontSize=16;" vertex="1" parent="hNd8LivyKxEMw5aS4ujh-331">
          <mxGeometry x="320" width="100" height="40" as="geometry">
            <mxRectangle width="100" height="40" as="alternateBounds" />
          </mxGeometry>
        </mxCell>
        <mxCell id="hNd8LivyKxEMw5aS4ujh-334" value="航变" style="shape=partialRectangle;html=1;whiteSpace=wrap;connectable=0;strokeColor=inherit;overflow=hidden;fillColor=none;top=0;left=0;bottom=0;right=0;pointerEvents=1;fontSize=16;" vertex="1" parent="hNd8LivyKxEMw5aS4ujh-331">
          <mxGeometry x="420" width="100" height="40" as="geometry">
            <mxRectangle width="100" height="40" as="alternateBounds" />
          </mxGeometry>
        </mxCell>
        <mxCell id="hNd8LivyKxEMw5aS4ujh-335" value="240" style="shape=partialRectangle;html=1;whiteSpace=wrap;connectable=0;strokeColor=inherit;overflow=hidden;fillColor=none;top=0;left=0;bottom=0;right=0;pointerEvents=1;fontSize=16;" vertex="1" parent="hNd8LivyKxEMw5aS4ujh-331">
          <mxGeometry x="520" width="100" height="40" as="geometry">
            <mxRectangle width="100" height="40" as="alternateBounds" />
          </mxGeometry>
        </mxCell>
        <mxCell id="hNd8LivyKxEMw5aS4ujh-336" value="&lt;span style=&quot;color: rgb(0, 0, 0); font-family: Helvetica; font-size: 16px; font-style: normal; font-variant-ligatures: normal; font-variant-caps: normal; font-weight: 400; letter-spacing: normal; orphans: 2; text-align: center; text-indent: 0px; text-transform: none; widows: 2; word-spacing: 0px; -webkit-text-stroke-width: 0px; white-space: normal; background-color: rgb(251, 251, 251); text-decoration-thickness: initial; text-decoration-style: initial; text-decoration-color: initial; float: none; display: inline !important;&quot;&gt;可退&lt;/span&gt;" style="shape=partialRectangle;html=1;whiteSpace=wrap;connectable=0;strokeColor=inherit;overflow=hidden;fillColor=none;top=0;left=0;bottom=0;right=0;pointerEvents=1;fontSize=16;" vertex="1" parent="hNd8LivyKxEMw5aS4ujh-331">
          <mxGeometry x="620" width="80" height="40" as="geometry">
            <mxRectangle width="80" height="40" as="alternateBounds" />
          </mxGeometry>
        </mxCell>
        <mxCell id="hNd8LivyKxEMw5aS4ujh-337" value="100" style="shape=partialRectangle;html=1;whiteSpace=wrap;connectable=0;strokeColor=inherit;overflow=hidden;fillColor=none;top=0;left=0;bottom=0;right=0;pointerEvents=1;fontSize=16;" vertex="1" parent="hNd8LivyKxEMw5aS4ujh-331">
          <mxGeometry x="700" width="70" height="40" as="geometry">
            <mxRectangle width="70" height="40" as="alternateBounds" />
          </mxGeometry>
        </mxCell>
        <mxCell id="hNd8LivyKxEMw5aS4ujh-338" value="0" style="shape=partialRectangle;html=1;whiteSpace=wrap;connectable=0;strokeColor=inherit;overflow=hidden;fillColor=none;top=0;left=0;bottom=0;right=0;pointerEvents=1;fontSize=16;" vertex="1" parent="hNd8LivyKxEMw5aS4ujh-331">
          <mxGeometry x="770" width="110" height="40" as="geometry">
            <mxRectangle width="110" height="40" as="alternateBounds" />
          </mxGeometry>
        </mxCell>
        <mxCell id="hNd8LivyKxEMw5aS4ujh-339" value="0" style="shape=partialRectangle;html=1;whiteSpace=wrap;connectable=0;strokeColor=inherit;overflow=hidden;fillColor=none;top=0;left=0;bottom=0;right=0;pointerEvents=1;fontSize=16;" vertex="1" parent="hNd8LivyKxEMw5aS4ujh-331">
          <mxGeometry x="880" width="100" height="40" as="geometry">
            <mxRectangle width="100" height="40" as="alternateBounds" />
          </mxGeometry>
        </mxCell>
        <mxCell id="hNd8LivyKxEMw5aS4ujh-340" value="80%" style="shape=partialRectangle;html=1;whiteSpace=wrap;connectable=0;strokeColor=inherit;overflow=hidden;fillColor=none;top=0;left=0;bottom=0;right=0;pointerEvents=1;fontSize=16;" vertex="1" parent="hNd8LivyKxEMw5aS4ujh-331">
          <mxGeometry x="980" width="100" height="40" as="geometry">
            <mxRectangle width="100" height="40" as="alternateBounds" />
          </mxGeometry>
        </mxCell>
        <mxCell id="hNd8LivyKxEMw5aS4ujh-279" value="根据【规则管理】处理" style="whiteSpace=wrap;html=1;rounded=1;fillColor=#d5e8d4;strokeColor=#82b366;" vertex="1" parent="1">
          <mxGeometry x="1320" y="1280" width="136.5" height="60" as="geometry" />
        </mxCell>
        <mxCell id="hNd8LivyKxEMw5aS4ujh-285" style="edgeStyle=orthogonalEdgeStyle;rounded=0;orthogonalLoop=1;jettySize=auto;html=1;" edge="1" parent="1" source="hNd8LivyKxEMw5aS4ujh-280" target="hNd8LivyKxEMw5aS4ujh-282">
          <mxGeometry relative="1" as="geometry" />
        </mxCell>
        <mxCell id="hNd8LivyKxEMw5aS4ujh-286" style="edgeStyle=orthogonalEdgeStyle;rounded=0;orthogonalLoop=1;jettySize=auto;html=1;" edge="1" parent="1" source="hNd8LivyKxEMw5aS4ujh-280" target="hNd8LivyKxEMw5aS4ujh-281">
          <mxGeometry relative="1" as="geometry" />
        </mxCell>
        <mxCell id="hNd8LivyKxEMw5aS4ujh-287" style="edgeStyle=orthogonalEdgeStyle;rounded=0;orthogonalLoop=1;jettySize=auto;html=1;" edge="1" parent="1" source="hNd8LivyKxEMw5aS4ujh-280" target="hNd8LivyKxEMw5aS4ujh-279">
          <mxGeometry relative="1" as="geometry" />
        </mxCell>
        <mxCell id="hNd8LivyKxEMw5aS4ujh-280" value="选择处理方式" style="rounded=1;whiteSpace=wrap;html=1;" vertex="1" parent="1">
          <mxGeometry x="1167" y="1100" width="120" height="60" as="geometry" />
        </mxCell>
        <mxCell id="hNd8LivyKxEMw5aS4ujh-281" value="按航司标准规则处理" style="rounded=1;whiteSpace=wrap;html=1;fillColor=#d5e8d4;strokeColor=#82b366;" vertex="1" parent="1">
          <mxGeometry x="1000" y="1280" width="120" height="60" as="geometry" />
        </mxCell>
        <mxCell id="hNd8LivyKxEMw5aS4ujh-282" value="按平台退改规则处理" style="rounded=1;whiteSpace=wrap;html=1;fillColor=#d5e8d4;strokeColor=#82b366;" vertex="1" parent="1">
          <mxGeometry x="1166.5" y="1280" width="120" height="60" as="geometry" />
        </mxCell>
      </root>
    </mxGraphModel>
  </diagram>
</mxfile>
